<?xml version="1.0" encoding="utf-8"?>
<!-- Generator: Adobe Illustrator 26.4.0, SVG Export Plug-In . SVG Version: 6.00 Build 0)  -->
<svg version="1.1" id="레이어_1" xmlns="http://www.w3.org/2000/svg" xmlns:xlink="http://www.w3.org/1999/xlink" x="0px"
	 y="0px" viewBox="0 0 36 36" style="enable-background:new 0 0 36 36;" xml:space="preserve">
<style type="text/css">
	.st0{fill:#7FD8F4;}
</style>
<path class="st0" d="M26.3,18.9c0-4.2,3.5-6.3,3.6-6.3c-1.9-2.9-5.1-3.3-6.1-3.3c-2.6-0.3-5.1,1.6-6.3,1.6c-1.4,0-3.3-1.5-5.5-1.5
	c-2.8,0-5.4,1.7-6.8,4.1c-3,5.1-0.8,12.7,2,16.8c1.4,2,3,4.3,5.2,4.2c2.1-0.1,2.9-1.4,5.5-1.4s3.3,1.4,5.5,1.3c2.3,0,3.7-2,5.1-4
	c1.7-2.3,2.3-4.6,2.3-4.8C30.8,25.6,26.4,24,26.3,18.9L26.3,18.9z"/>
<path class="st0" d="M22.2,6.5C23.3,5,24.1,3.1,24,1.1c-1.7,0.1-3.7,1.1-4.9,2.6c-1,1.2-2,3.2-1.7,5.1C19.1,9,21,7.9,22.2,6.5
	L22.2,6.5z"/>
</svg>
