<?xml version="1.0" encoding="utf-8"?>
<!-- Generator: Adobe Illustrator 26.4.0, SVG Export Plug-In . SVG Version: 6.00 Build 0)  -->
<svg version="1.1" id="레이어_1" xmlns="http://www.w3.org/2000/svg" xmlns:xlink="http://www.w3.org/1999/xlink" x="0px"
	 y="0px" viewBox="0 0 36 36" style="enable-background:new 0 0 36 36;" xml:space="preserve">
<style type="text/css">
	.st0{fill:#7FD8F4;}
</style>
<path class="st0" d="M19.6,17.8l4.7-4.7L9.1,4.6C8.1,4,7.2,4,6.3,4.6L19.6,17.8z M25.1,23.3l4.9-2.7c1-0.5,1.5-1.3,1.5-2.1
	c0-0.8-0.5-1.6-1.5-2.1l-4.4-2.5l-5,5L25.1,23.3z M5.5,5.7C5.4,6,5.4,6.4,5.4,6.8v23.4c0,0.6,0.1,1.1,0.4,1.5l12.9-12.9L5.5,5.7z
	 M19.6,19.8L6.8,32.6c0.2,0.1,0.5,0.1,0.8,0.1c0.5,0,1-0.1,1.5-0.4L23.8,24L19.6,19.8z"/>
</svg>
